<?xml version="1.0" encoding="UTF-8" standalone="no"?>
<svg
   xmlns:dc="http://purl.org/dc/elements/1.1/"
   xmlns:cc="http://creativecommons.org/ns#"
   xmlns:rdf="http://www.w3.org/1999/02/22-rdf-syntax-ns#"
   xmlns:svg="http://www.w3.org/2000/svg"
   xmlns="http://www.w3.org/2000/svg"
   xmlns:xlink="http://www.w3.org/1999/xlink"
   style="fill:none;stroke:none;stroke-linecap:square;stroke-miterlimit:10"
   height="55.050915"
   width="224.46091"
   id="svg41"
   stroke-miterlimit="10"
   viewBox="0 0 224.4609 55.050915"
   version="1.1">
  <metadata
     id="metadata47">
    <rdf:RDF>
      <cc:Work
         rdf:about="">
        <dc:format>image/svg+xml</dc:format>
        <dc:type
           rdf:resource="http://purl.org/dc/dcmitype/StillImage" />
        <dc:title></dc:title>
      </cc:Work>
    </rdf:RDF>
  </metadata>
  <defs
     id="defs45" />
  <clipPath
     id="p.0">
    <path
       style="clip-rule:nonzero"
       id="path2"
       d="M 0,0 H 1247.0342 V 299 H 0 Z" />
  </clipPath>
  <g
     transform="translate(-495.21783,-124.37147)"
     id="g39"
     clip-path="url(#p.0)">
    <path
       style="fill:#000000;fill-opacity:0;fill-rule:evenodd;stroke-width:0.17902568"
       id="path5"
       d="m 496.42571,125.35018 h 223.25115 v 53.52868 H 496.42571 Z" />
    <path
       style="fill:#fa4f13;fill-rule:evenodd;stroke-width:0.17902568"
       id="path7"
       d="m 496.39994,125.35018 h 60.66575 v 53.70771 h -60.66575 z" />
    <g
       style="filter:url(#shadowFilter-p.1)"
       transform="matrix(0.17902569,0,0,0.17902569,496.42571,125.35018)"
       id="g11">
      <use
         height="100%"
         width="100%"
         y="0"
         x="0"
         id="use9"
         transform="translate(0,2)"
         xlink:href="#p.1" />
    </g>
    <defs
       id="defs26">
      <filter
         filterUnits="userSpaceOnUse"
         id="shadowFilter-p.1">
        <feGaussianBlur
           id="feGaussianBlur13"
           result="blur"
           stdDeviation="2.0"
           in="SourceAlpha" />
        <feComponentTransfer
           style="color-interpolation-filters:sRGB"
           id="feComponentTransfer23"
           in="blur">
          <feFuncR
             id="feFuncR15"
             intercept="1.0"
             slope="0"
             type="linear" />
          <feFuncG
             id="feFuncG17"
             intercept="1.0"
             slope="0"
             type="linear" />
          <feFuncB
             id="feFuncB19"
             intercept="1.0"
             slope="0"
             type="linear" />
          <feFuncA
             id="feFuncA21"
             intercept="0"
             slope="0.5"
             type="linear" />
        </feComponentTransfer>
      </filter>
    </defs>
    <g
       transform="matrix(0.17902569,0,0,0.17902569,496.42571,125.35018)"
       id="p.1">
      <path
         style="fill:#000000;fill-opacity:0;fill-rule:evenodd"
         id="path28"
         d="M 0,-3.3333333 H 376.0315 V 300.00527 H 0 Z" />
      <path
         style="fill:#ffffff;fill-rule:nonzero"
         id="path30"
         d="M 312.04376,302.03598 V 90.33286 L 226.82499,302.03598 H 198.71562 L 113.49687,90.33286 v 211.70312 h -64.375 v -302.375 h 90.20312 L 212.77812,182.3641 286.21564,-0.33902 h 90.65625 v 302.375 z" />
    </g>
    <path
       style="fill:#000000;fill-opacity:0;fill-rule:evenodd;stroke-width:0.17902568"
       id="path33"
       d="m 569.38173,125.35018 h 150.29701 v 53.17204 H 569.38173 Z" />
    <path
       style="fill:#ffffff;fill-rule:nonzero;stroke-width:0.17902568"
       id="path35"
       d="m 594.12364,164.82605 v -16.72212 l -6.73305,16.72212 h -2.21824 l -6.73304,-16.72212 v 16.72212 h -5.08265 V 140.9429 h 7.12466 l 5.80155,14.43115 5.79876,-14.43115 h 7.16103 v 23.88315 z m 21.16141,0.43078 q -5.44351,0 -8.95409,-3.47422 -3.50779,-3.47421 -3.50779,-8.87855 0,-5.37077 3.50779,-8.86177 3.51058,-3.491 8.95409,-3.491 5.47707,0 8.98485,3.491 3.51058,3.491 3.51058,8.86177 0,5.37077 -3.51058,8.86177 -3.50778,3.491 -8.98485,3.491 z m 0,-4.51201 q 3.14973,0 5.20853,-2.16509 2.05879,-2.16789 2.05879,-5.67567 0,-3.40149 -1.98886,-5.62253 -1.98607,-2.22103 -5.27846,-2.22103 -3.2952,0 -5.26448,2.22103 -1.96929,2.22104 -1.96929,5.62253 0,3.43505 2.00565,5.63931 2.00565,2.20145 5.22812,2.20145 z m 16.07595,4.08123 V 140.9429 h 16.89834 v 4.47565 h -11.81569 v 5.04908 h 11.56674 v 4.47564 h -11.56674 v 5.40714 h 11.81569 v 4.47564 z m 32.43834,0.46435 q -5.4407,0 -9.07716,-3.47142 -3.63366,-3.47422 -3.63366,-8.91492 0,-5.4435 3.59729,-8.89814 3.6001,-3.45463 9.11353,-3.45463 6.51765,0 9.88278,5.3344 l -4.22389,2.29097 q -0.8252,-1.25318 -2.27698,-2.18467 -1.44899,-0.93149 -3.38191,-0.93149 -3.25883,0 -5.37077,2.23782 -2.11194,2.23782 -2.11194,5.60574 0,3.47142 2.1483,5.65609 2.14831,2.18467 5.33441,2.18467 1.61123,0 2.99029,-0.57344 1.37906,-0.57344 2.09516,-1.25318 v -2.86441 h -6.30227 v -4.43928 h 11.38492 v 9.16668 q -4.04486,4.50921 -10.1681,4.50921 z m 24.99367,-0.0336 q -5.08545,0 -7.93308,-2.61266 -2.84483,-2.61545 -2.84483,-7.34285 V 140.9429 h 5.15538 v 14.1794 q 0,2.50636 1.41262,4.06444 1.41543,1.55808 4.20991,1.55808 2.79168,0 4.18752,-1.55808 1.39584,-1.55808 1.39584,-4.06444 v -14.1794 h 5.19174 v 14.32206 q 0,4.7274 -2.79168,7.35963 -2.79168,2.63224 -7.98342,2.63224 z m 15.46725,-0.43078 V 140.9429 h 5.08265 v 23.88315 z" />
    <path
       style="fill:#ffffff;fill-rule:nonzero;stroke-width:0.17902568"
       id="path37"
       d="m 716.8206,165.91139 q 0,0.97066 -0.67974,1.66718 -0.67974,0.69652 -1.68116,0.69652 -0.98185,0 -1.67277,-0.68533 -0.69093,-0.68533 -0.69093,-1.67837 0,-1.00142 0.70212,-1.68116 0.70211,-0.67974 1.66158,-0.67974 0.99023,0 1.67557,0.68533 0.68533,0.68534 0.68533,1.67557 z m -0.35805,0 q 0,-0.83359 -0.59023,-1.41822 -0.59022,-0.58463 -1.41262,-0.58463 -0.83639,0 -1.42102,0.59023 -0.58463,0.59022 -0.58463,1.41262 0,0.83639 0.59023,1.42102 0.59022,0.58463 1.41542,0.58463 0.83359,0 1.41822,-0.59023 0.58463,-0.59022 0.58463,-1.41542 z m -1.35668,1.35948 -0.70212,-1.06856 h -0.46994 v 1.06856 h -0.37763 v -2.70497 h 1.10212 q 0.34687,0 0.61261,0.22379 0.26854,0.22098 0.26854,0.59861 0,0.33568 -0.21819,0.57065 -0.21539,0.23217 -0.47274,0.23217 l 0.72449,1.07975 z m 0.042,-1.88257 q 0,-0.22098 -0.15665,-0.35525 -0.15385,-0.13427 -0.33288,-0.13427 h -0.72449 v 0.95667 h 0.72449 q 0.17903,0 0.33288,-0.12588 0.15665,-0.12867 0.15665,-0.34127 z" />
  </g>
</svg>
